<?xml version="1.0" encoding="UTF-8"?>
<!-- Generator: Adobe Illustrator 21.1.0, SVG Export Plug-In . SVG Version: 6.00 Build 0)  -->
<svg version="1.1" id="Layer_1" xmlns="http://www.w3.org/2000/svg" xmlns:xlink="http://www.w3.org/1999/xlink" x="0px" y="0px" viewBox="0 0 500 200" style="enable-background:new 0 0 500 200;" xml:space="preserve">
<style type="text/css">
	.st0{opacity:0.4;fill:url(#SVGID_1_);}
	.st1{fill:#1C4984;}
	.st2{fill:#296C97;}
</style>
<g>
	<linearGradient id="SVGID_1_" gradientUnits="userSpaceOnUse" x1="54.9804" y1="99.8343" x2="493.3333" y2="99.8343">
		<stop offset="0" style="stop-color:#CCE0F4"/>
		<stop offset="0.1179" style="stop-color:#C3DDF3"/>
		<stop offset="0.314" style="stop-color:#A9D6F0"/>
		<stop offset="0.5641" style="stop-color:#80CAEC"/>
		<stop offset="0.8555" style="stop-color:#47BAE6"/>
		<stop offset="0.9944" style="stop-color:#29B1E3"/>
	</linearGradient>
	<path class="st0" d="M478.1,22.1c-7.8,0-14.2,5.9-15.1,13.5l-114.4-5.7c0-0.1,0-0.1,0-0.2c0-12.6-10.2-22.8-22.8-22.8   c-12.6,0-22.8,10.2-22.8,22.8c0,0.7,0,1.4,0.1,2l-45,3.2c-1.5-8.2-8.7-14.4-17.3-14.4c-6.5,0-12.1,3.5-15.2,8.8l-95.1-11   c-0.8-9-8.4-16-17.5-16c-9.7,0-17.6,7.9-17.6,17.6c0,4.8,1.9,9.2,5.1,12.3L79.7,74.4c-2.2-1-4.6-1.5-7.1-1.5   c-9.7,0-17.6,7.9-17.6,17.6s7.9,17.6,17.6,17.6c4.8,0,9.1-1.9,12.3-5l136.8,48.1c0.1,0,0.2,0.1,0.3,0.1c0,0,0,0,0.1,0   c2.4,6.9,8.9,11.9,16.6,11.9c9.7,0,17.6-7.9,17.6-17.6c0-2.4-0.5-4.7-1.4-6.9l27-15.6c2,3.4,5.6,5.6,9.8,5.6c0.9,0,1.8-0.1,2.6-0.3   l27.5,55c-2,1.4-3.4,3.6-3.4,6.2c0,4.2,3.4,7.6,7.6,7.6c4.2,0,7.6-3.4,7.6-7.6c0-0.2-0.1-0.4-0.1-0.7l115-25.6   c1.8,6.3,7.6,11,14.6,11c8.4,0,15.2-6.8,15.2-15.2c0-7.4-5.3-13.6-12.4-14.9l11.5-91.7c0.3,0,0.6,0.1,0.9,0.1   c8.4,0,15.2-6.8,15.2-15.2S486.5,22.1,478.1,22.1z M227.7,49.8l-23.8,23.8c-0.1,0.1-0.1,0.1-0.1,0.2c-4.8-5-11.5-8.1-18.9-8.1   c-6.9,0-13.1,2.6-17.8,7l-11.3-11.4l67.7-20.2c0,0,0,0,0,0C224.1,44.4,225.5,47.4,227.7,49.8z M87.7,81.6l66.1-19.7l12,12   c-4.4,4.6-7.1,10.9-7.1,17.8H90.1c0-0.4,0.1-0.8,0.1-1.2C90.2,87.3,89.3,84.2,87.7,81.6z M130.6,20.2l94.1,10.9   c-1,2.2-1.5,4.6-1.5,7.1c0,0.4,0,0.8,0.1,1.2c-0.1,0-0.2,0-0.3,0l-68.6,20.5l-28.2-28.2C128.9,28.6,130.6,24.6,130.6,20.2z    M81.3,75.3l20.6-41.7c3,2.5,6.9,4,11.1,4c4.6,0,8.7-1.8,11.8-4.6l27.5,27.5L87.2,79.9C87,80,86.9,80,86.8,80.2   C85.3,78.2,83.5,76.5,81.3,75.3z M221,145.5c0,1.3,0.1,2.5,0.4,3.7L86.2,101.6c1.9-2.3,3.2-5.1,3.7-8.1h68.9   c0.9,13.7,12.2,24.5,26.1,24.5c6.9,0,13.2-2.7,17.9-7.1l22.8,22.8C222.8,136.8,221,141,221,145.5z M245.3,129.2   c-2.1-0.8-4.3-1.3-6.7-1.3c-4.5,0-8.6,1.7-11.7,4.5l-22.8-22.8c4.3-4.7,7-10.9,7-17.8c0-6.4-2.3-12.2-6.1-16.8   c0.1,0,0.2-0.1,0.2-0.1L229,51.1c3.1,2.8,7.3,4.6,11.8,4.6c2.1,0,4-0.4,5.9-1L245.3,129.2z M290.1,106c-5.6,0.7-10,5.5-10,11.3   c0,1.7,0.4,3.2,1,4.7l-27,15.6c-1.6-3.1-4.1-5.7-7.2-7.4l1.5-76.2c5.8-2.9,9.9-8.9,9.9-15.8c0-0.6,0-1.3-0.1-1.9l45-3.2   c1.1,7.5,5.8,13.7,12.3,17L290.1,106z M325.8,182c-0.9,0-1.7,0.2-2.5,0.5L296,127.8c4.1-1.7,7-5.8,7-10.5c0-6.1-4.8-11-10.8-11.4   l25-55.1c2.7,1.1,5.5,1.7,8.6,1.7c1.4,0,2.8-0.2,4.2-0.4l16.3,70.8c-3.2,2-5.3,5.6-5.3,9.6c0,2.7,1,5.1,2.5,7.1l-16,42.8   C327,182.2,326.4,182,325.8,182z M447.9,161.5l-115,25.5c-0.6-1.8-1.9-3.2-3.6-4.1l15.7-41.9c2,1.7,4.6,2.8,7.4,2.8   c5.9,0,10.7-4.5,11.3-10.2l84.2,22.4c-0.2,1-0.3,2-0.3,3C447.7,160,447.8,160.8,447.9,161.5z M463.8,144.1c-0.3,0-0.6-0.1-0.9-0.1   c-6.7,0-12.3,4.4-14.4,10.4l-84.7-22.6c-0.4-5.9-5.3-10.7-11.3-10.7c-1.6,0-3,0.3-4.4,0.9l-16.2-70.3c9-2.5,15.7-10.3,16.6-19.8   l114.4,5.7c0.1,7.4,5.4,13.4,12.4,14.7L463.8,144.1z"/>
	<g>
		<g>
			<path class="st1" d="M4,67.9c0-7.3,2.4-13.2,7.2-17.8c4.8-4.6,10.9-6.9,18.2-6.9c8.9,0,15.5,3.9,19.9,11.6l-8.7,4.3     c-1-2-2.6-3.7-4.6-5c-2-1.3-4.2-2-6.5-2c-4.3,0-7.9,1.5-10.8,4.4c-2.8,3-4.3,6.7-4.3,11.3c0,4.6,1.4,8.3,4.2,11.3     c2.8,3,6.4,4.5,10.8,4.5c2.3,0,4.5-0.7,6.5-2c2-1.3,3.6-3,4.6-5l8.7,4.2c-4.4,7.8-11,11.7-19.9,11.7c-7.3,0-13.3-2.3-18.2-6.9     C6.4,81.1,4,75.2,4,67.9z"/>
			<path class="st1" d="M51.6,91.8V44.1h9.1v17.6c3.1-3.5,7.1-5.3,12.1-5.3c3.7,0,6.5,1,8.4,2.9c1.9,1.9,2.8,4.6,2.8,8v24.5h-9.1     v-21c0-4.2-2.1-6.3-6.4-6.3c-3.2,0-5.9,1.3-7.9,4v23.4H51.6z"/>
			<path class="st1" d="M87.2,74.4c0-5.1,1.7-9.3,5.1-12.8c3.4-3.5,7.6-5.3,12.8-5.3c5.2,0,9.3,1.8,12.5,5.3     c3.2,3.5,4.8,8.1,4.8,13.7v2.1H96.7c0.3,2.2,1.4,4.1,3.1,5.6c1.7,1.5,4,2.2,6.8,2.2c1.6,0,3.2-0.3,5-0.9c1.7-0.6,3.1-1.4,4.2-2.5     l4,6c-3.5,3.2-8.2,4.8-14.2,4.8c-5.3,0-9.7-1.7-13.2-5C89,84.3,87.2,79.9,87.2,74.4z M96.7,71.2h17c-0.2-2-1-3.7-2.4-5.1     c-1.4-1.5-3.5-2.2-6.2-2.2c-2.6,0-4.6,0.7-6.1,2.2C97.6,67.4,96.8,69.2,96.7,71.2z"/>
			<path class="st1" d="M125.4,91.8V57.2h9.1v4.4c0.9-1.2,2.4-2.4,4.5-3.6s4.4-1.7,6.8-1.7c5,0,8.2,2.1,9.5,6.2     c1.1-1.7,2.7-3.1,4.9-4.3c2.2-1.2,4.5-1.8,7-1.8c3.2,0,5.7,0.9,7.5,2.6c1.8,1.7,2.6,4.4,2.6,7.8v25h-9.1V69.9     c0-3.7-1.7-5.5-5.2-5.5c-1.5,0-2.8,0.4-4.1,1.2c-1.3,0.8-2.3,1.7-3,2.8v23.4h-9.1V69.9c0-3.7-1.7-5.5-5.1-5.5     c-2.8,0-5.2,1.3-7.2,4v23.4H125.4z"/>
		</g>
	</g>
	<g>
		<g>
			<path class="st1" d="M168.2,91.8v-8.9h38.1v8.9h-13.9v38.8h-10.2V91.8H168.2z"/>
			<path class="st1" d="M204.1,120.5V96h9.1v21c0,4.2,2.1,6.4,6.4,6.4c3.2,0,5.8-1.3,7.9-3.9V96h9.1v34.5h-9.1v-4.3     c-3.2,3.5-7.2,5.2-12.1,5.2c-3.7,0-6.5-1-8.4-2.9C205,126.6,204.1,123.9,204.1,120.5z"/>
			<path class="st1" d="M241.9,130.5V82.8h9.1v17.6c2.7-3.5,6.2-5.3,10.6-5.3c4.5,0,8.2,1.6,11,4.9c2.9,3.3,4.3,7.7,4.3,13.2     c0,5.6-1.4,10.1-4.3,13.3c-2.9,3.2-6.5,4.9-11,4.9c-4.3,0-7.8-1.8-10.6-5.3v4.4H241.9z M251,119.5c0.8,1.1,2,2,3.4,2.8     c1.5,0.7,2.9,1.1,4.4,1.1c2.6,0,4.7-0.9,6.3-2.8c1.6-1.9,2.4-4.3,2.4-7.3c0-3-0.8-5.4-2.4-7.2c-1.6-1.9-3.7-2.8-6.3-2.8     c-1.5,0-2.9,0.4-4.4,1.1c-1.5,0.8-2.6,1.7-3.4,2.9V119.5z"/>
			<path class="st1" d="M278,113.2c0-5.1,1.7-9.3,5.1-12.8c3.4-3.5,7.6-5.3,12.8-5.3c5.2,0,9.3,1.8,12.5,5.3     c3.2,3.5,4.8,8.1,4.8,13.7v2.1h-25.7c0.3,2.2,1.4,4.1,3.1,5.6c1.7,1.5,4,2.2,6.8,2.2c1.6,0,3.2-0.3,5-0.9     c1.7-0.6,3.1-1.4,4.2-2.5l4,6c-3.5,3.2-8.2,4.8-14.2,4.8c-5.3,0-9.7-1.7-13.2-5C279.7,123,278,118.6,278,113.2z M287.4,109.9h17     c-0.2-2-1-3.7-2.4-5.1c-1.4-1.5-3.5-2.2-6.2-2.2c-2.6,0-4.6,0.7-6.1,2.2C288.4,106.2,287.6,107.9,287.4,109.9z"/>
		</g>
	</g>
	<g>
		<g>
			<path class="st2" d="M322.6,130.7l10.2-12.8c3,3.2,6.7,5.7,11.2,7.5c4.5,1.8,9,2.7,13.5,2.7c5.4,0,9.6-1.1,12.6-3.2     c3-2.1,4.5-4.9,4.5-8.3c0-3.6-1.4-6.2-4.3-7.9c-2.9-1.7-7.5-2.5-13.8-2.5c-5.7,0-9.4,0.1-11.2,0.3V89.3c1.1,0.1,4.8,0.1,11.2,0.1     c11.2,0,16.8-3.2,16.8-9.6c0-3.4-1.6-6.1-4.7-7.9c-3.1-1.8-7.2-2.8-12-2.8c-8.8,0-16.5,3.1-22.9,9.4l-9.6-12     c8.5-9.5,20-14.2,34.4-14.2c10.6,0,18.9,2.2,24.9,6.6c6.1,4.4,9.1,10.3,9.1,17.7c0,5.4-1.9,9.9-5.8,13.6c-3.9,3.6-8.5,6-13.9,6.9     c5.3,0.5,10.2,2.7,14.5,6.6c4.4,3.8,6.5,8.9,6.5,15.1c0,7.8-3.2,14.1-9.7,19c-6.5,4.9-15.1,7.3-25.8,7.3c-7.8,0-14.8-1.3-21-4     C330.9,138.5,326.1,135,322.6,130.7z"/>
		</g>
	</g>
	<g>
		<path class="st2" d="M402.7,142.6V52.5h35.6c14.2,0,25.7,4.1,34.6,12.4c8.9,8.3,13.3,19.1,13.3,32.5c0,13.6-4.4,24.5-13.3,32.7    c-8.9,8.2-20.3,12.4-34.5,12.4H402.7z M421.9,125.7h16.4c8.7,0,15.5-2.7,20.6-8.1c5.1-5.4,7.6-12.1,7.6-20.1    c0-8.2-2.5-14.9-7.4-20.2c-4.9-5.3-11.8-7.9-20.7-7.9h-16.5V125.7z"/>
	</g>
</g>
</svg>