<?xml version="1.0" encoding="UTF-8"?>
<svg xmlns="http://www.w3.org/2000/svg" viewBox="-255 309.5 100 145">
  <path d="M-234.9 376.6c-1.1-4.7.5-9.9 4.5-13.1 4-3.2 9.4-3.7 13.8-1.6l-18.3 14.7zm1-17.5c-8 6.5-9.3 18.2-2.8 26.2l29-23.4c-6.5-8-18.2-9.3-26.2-2.8z"/>
  <path d="M-221 361.6v2.6l2.5-2c-.8-.3-1.7-.5-2.5-.6zm0 34.2h8v-28.5l-8 6.5zm15.8-50.8 13.7 8.8-13.7 24.2v-33zm-4.7-8.7v22.1c1 .9 2 1.8 2.9 2.9l.6.7-3.5 2.8V396l24.8-43.8-24.8-15.9zm16.3 56.7 5.7 1.5c.8.2 1.6-.3 1.8-1l10-37.2-8.6-2.3-10 37.2c-.2.7.3 1.6 1.1 1.8zm18.1-38.3-1.3-10.9c.1-.3-.1-.5-.3-.6s-.5.1-.6.3l-6.6 8.7 8.8 2.5zm7.6 34.2c-2.4 0-4.3 1.9-4.3 4.3v16.7c2.3 1 3.7 3.2 3.7 5.5 0 1.5-.6 3-1.7 4.1l-8.9 9.7c-.4.5-1 1.3-1.2 2.2-.2.5-.2 1-.2 1.6h-2.8c0-.9.1-1.7.3-2.5.5-1.5 1.4-2.8 2-3.5l8.8-9.4c.5-.6.8-1.4.8-2.2 0-1.9-1.5-3.4-3.4-3.4-.9 0-1.7.3-2.4 1l-18.1 18.2c-3.1 3.3-2.9 6.6-2.9 9.1v6.6h15.6v-2.8c0-1.8.4-3 1.8-4.3l14.3-15.2c2-2.4 3.2-5.5 3.2-8.6v-22.9c-.3-2.3-2.2-4.2-4.6-4.2zm-64.8 24.2c-.6-.6-1.5-1-2.4-1-1.9 0-3.4 1.5-3.4 3.4 0 .8.3 1.6.8 2.2l8.8 9.4c.6.7 1.5 1.9 2 3.5.3.8.3 1.6.3 2.5h-2.8c0-.6-.1-1.1-.2-1.6-.3-.9-.8-1.7-1.2-2.2l-8.9-9.8c-1.1-1.1-1.7-2.6-1.7-4.1 0-2.3 1.4-4.4 3.7-5.5v-16.7c0-2.4-1.9-4.3-4.3-4.3s-4.3 1.9-4.3 4.3v22.9c0 3.2 1.1 6.2 3.2 8.6l14.3 15.2c1.4 1.3 1.8 2.5 1.8 4.3v2.8h15.6v-6.6c0-2.5.2-5.9-2.9-9.1l-18.4-18.2z"/>
  <path d="M-177.4 370.9h-55.3v34.6h55.3v-34.6zm-5.5 29h-44.2v-23.5h44.2v23.5z"/>
  <path fill="#FFF" stroke="#000" stroke-miterlimit="10" d="M-227.1 376.4h44.2v23.5h-44.2z"/>
  <path d="m-213.347458 336.3847.3 20.1c0 .1-2.2-1.2-3.5-1.5-1.2-.3-4.4-.7-4.3-.8l-.1-17.9c1.5.7 2.2 1 3.9 1 1.5 0 2.2-.3 3.7-.9zm3.1-14.7c.4.4.7 1 1.1 1.8.8 1.7 1 3.4.7 5.3-.3 1.9-1.1 3.4-2.4 4.7-1.7 1.7-3.8 2.6-6.2 2.6s-4.5-.9-6.2-2.6-2.6-3.8-2.6-6.2.9-4.5 2.6-6.2c.5-.5 1.2-1 1.9-1.5s1.4-.7 2.1-.8c.2 0 .5 0 .6.2.2.2.2.4.2.6l-1.7 6.4 3.1 3.1 4.1-1.2c0-.1.2-.7.4-1.8.3-1.1.5-2.1.8-3 .2-.9.4-1.4.5-1.5.1-.1.3-.2.5-.2.2.1.3.2.5.3z"/>
</svg>